<?xml version="1.0" encoding="UTF-8" standalone="no"?>
<!-- Created with Inkscape (http://www.inkscape.org/) -->

<svg
   xmlns:dc="http://purl.org/dc/elements/1.1/"
   xmlns:cc="http://creativecommons.org/ns#"
   xmlns:rdf="http://www.w3.org/1999/02/22-rdf-syntax-ns#"
   xmlns:svg="http://www.w3.org/2000/svg"
   xmlns="http://www.w3.org/2000/svg"
   xmlns:xlink="http://www.w3.org/1999/xlink"
   xmlns:sodipodi="http://sodipodi.sourceforge.net/DTD/sodipodi-0.dtd"
   xmlns:inkscape="http://www.inkscape.org/namespaces/inkscape"
   width="18"
   height="18"
   id="svg2"
   version="1.1"
   inkscape:version="0.48.4 r9939"
   sodipodi:docname="combine.svg">
  <defs
     id="defs4">
    <linearGradient
       id="linearGradient3758">
      <stop
         style="stop-color:#ffffff;stop-opacity:0.501961;"
         offset="0"
         id="stop3760" />
      <stop
         style="stop-color:#ffffff;stop-opacity:0;"
         offset="1"
         id="stop3762" />
    </linearGradient>
    <radialGradient
       inkscape:collect="always"
       xlink:href="#linearGradient3758"
       id="radialGradient3788"
       cx="9"
       cy="9"
       fx="9"
       fy="9"
       r="7.75"
       gradientUnits="userSpaceOnUse" />
  </defs>
  <sodipodi:namedview
     id="base"
     pagecolor="#f88b91"
     bordercolor="#666666"
     borderopacity="1.0"
     inkscape:pageopacity="1"
     inkscape:pageshadow="2"
     inkscape:zoom="1"
     inkscape:cx="23"
     inkscape:cy="-42.3749"
     inkscape:document-units="px"
     inkscape:current-layer="layer1"
     showgrid="false" />
  <metadata
     id="metadata7">
    <rdf:RDF>
      <cc:Work
         rdf:about="">
        <dc:format>image/svg+xml</dc:format>
        <dc:type
           rdf:resource="http://purl.org/dc/dcmitype/StillImage" />
        <dc:title />
      </cc:Work>
    </rdf:RDF>
  </metadata>
  <g
     inkscape:label="Layer 1"
     inkscape:groupmode="layer"
     id="layer1">
    <path
       transform="matrix(1.03448,0,0,0.967742,-0.568966,0.290643)"
       d="M 16.5,9 A 7.25,7.75 0 1 1 2,9 7.25,7.75 0 1 1 16.5,9 z"
       sodipodi:ry="7.75"
       sodipodi:rx="7.25"
       sodipodi:cy="9"
       sodipodi:cx="9.25"
       id="path3775"
       style="fill:#f5f53d;fill-opacity:1;stroke:none"
       sodipodi:type="arc" />
    <path
       sodipodi:type="arc"
       style="fill:#38ef00;fill-opacity:1;stroke:none"
       id="path3777"
       sodipodi:cx="9.25"
       sodipodi:cy="9"
       sodipodi:rx="7.25"
       sodipodi:ry="7.75"
       d="M 12.875,2.28831 A 7.25,7.75 0 0 1 5.625,15.7117 L 9.25,9 z"
       transform="matrix(1.03448,0,0,0.967742,-0.568966,0.290643)"
       sodipodi:start="5.23599"
       sodipodi:end="8.37758" />
    <path
       style="fill:url(#radialGradient3788);stroke:#000000;stroke-width:1;stroke-linecap:round;stroke-linejoin:bevel;stroke-miterlimit:4;stroke-opacity:1;stroke-dasharray:none;stroke-dashoffset:0;fill-opacity:1.0"
       d="m 16.25,9 c 0,4.0041 -3.2459,7.25 -7.25,7.25 C 4.99594,16.25 1.75,13.0041 1.75,9 1.75,4.99593 4.99594,1.75 9,1.75 c 4.0041,0 7.25,3.24593 7.25,7.25 z"
       id="path3753"
       inkscape:connector-curvature="0" />
    <path
       sodipodi:type="arc"
       style="fill:#000000;fill-opacity:1;stroke:none"
       id="path3766"
       sodipodi:cx="7"
       sodipodi:cy="7"
       sodipodi:rx="1.5"
       sodipodi:ry="1.5"
       d="m 8.5,7 a 1.5,1.5 0 1 1 -3,0 1.5,1.5 0 1 1 3,0 z"
       transform="matrix(0.666667,0,0,0.666667,2.33333,2.33333)" />
    <path
       d="m 8.5,7 a 1.5,1.5 0 1 1 -3,0 1.5,1.5 0 1 1 3,0 z"
       sodipodi:ry="1.5"
       sodipodi:rx="1.5"
       sodipodi:cy="7"
       sodipodi:cx="7"
       id="path3768"
       style="fill:#000000;fill-opacity:1;stroke:none"
       sodipodi:type="arc"
       transform="matrix(0.666667,0,0,0.666667,6.33333,2.33333)" />
    <path
       style="fill:none;stroke:#000000;stroke-width:1;stroke-linecap:round;stroke-linejoin:miter;stroke-miterlimit:4;stroke-opacity:1;stroke-dasharray:none"
       d="m 5.5,10.5 c 0,0 1.04458,2.0004 3.49999,2.0004 C 11.4554,12.5004 12.5,10.5 12.5,10.5"
       id="path3770"
       inkscape:connector-curvature="0"
       sodipodi:nodetypes="czc" />
  </g>
</svg>
