<?xml version="1.0" encoding="UTF-8" standalone="no"?>
<!-- Created with Inkscape (http://www.inkscape.org/) -->

<svg
   xmlns:dc="http://purl.org/dc/elements/1.1/"
   xmlns:cc="http://creativecommons.org/ns#"
   xmlns:rdf="http://www.w3.org/1999/02/22-rdf-syntax-ns#"
   xmlns:svg="http://www.w3.org/2000/svg"
   xmlns="http://www.w3.org/2000/svg"
   xmlns:xlink="http://www.w3.org/1999/xlink"
   xmlns:sodipodi="http://sodipodi.sourceforge.net/DTD/sodipodi-0.dtd"
   xmlns:inkscape="http://www.inkscape.org/namespaces/inkscape"
   width="19"
   height="19"
   id="svg3635"
   version="1.1"
   inkscape:version="0.48.4 r9939"
   sodipodi:docname="DeviantLoveIcon.svg"
   inkscape:export-xdpi="227.36842"
   inkscape:export-ydpi="227.36842">
  <defs
     id="defs3637">
    <linearGradient
       id="linearGradient4163">
      <stop
         style="stop-color:#ffc622;stop-opacity:1;"
         offset="0"
         id="stop4165" />
      <stop
         style="stop-color:#ff4a71;stop-opacity:1;"
         offset="1"
         id="stop4167" />
    </linearGradient>
    <radialGradient
       inkscape:collect="always"
       xlink:href="#linearGradient4163"
       id="radialGradient2990"
       gradientUnits="userSpaceOnUse"
       gradientTransform="matrix(1,0,0,0.883955,0,-913.226)"
       cx="9.5"
       cy="1042.17"
       fx="9.5"
       fy="1042.17"
       r="8.5" />
  </defs>
  <sodipodi:namedview
     id="base"
     pagecolor="#ffffff"
     bordercolor="#666666"
     borderopacity="1.0"
     inkscape:pageopacity="0.0"
     inkscape:pageshadow="2"
     inkscape:zoom="4"
     inkscape:cx="0"
     inkscape:cy="-12.5"
     inkscape:document-units="px"
     inkscape:current-layer="svg3635"
     showgrid="false"
     inkscape:window-width="1396"
     inkscape:window-height="814"
     inkscape:window-x="-4"
     inkscape:window-y="-4"
     inkscape:window-maximized="1"
     inkscape:snap-grids="true"
     inkscape:snap-global="false">
    <inkscape:grid
       type="xygrid"
       id="grid4157"
       empspacing="4"
       visible="true"
       enabled="true"
       snapvisiblegridlinesonly="true"
       spacingx="2px"
       spacingy="2px"
       originx="1.5px"
       originy="2.7755576e-17px" />
  </sodipodi:namedview>
  <metadata
     id="metadata3640">
    <rdf:RDF>
      <cc:Work
         rdf:about="">
        <dc:format>image/svg+xml</dc:format>
        <dc:type
           rdf:resource="http://purl.org/dc/dcmitype/StillImage" />
        <dc:title />
      </cc:Work>
    </rdf:RDF>
  </metadata>
  <path
     transform="translate(0,-0.005453)"
     d="m 5.5,1.90625 c -2.82039,0 -4.59375,2.29338 -4.59375,4.59375 0,2.60599 2.14577,5.1471 4.1875,7.125 1.94127,1.8806 3.75167,3.1523 3.9375,3.2812 0.0382,0.047 0.0802,0.063 0.125,0.094 0.0806,0.055 0.18427,0.1112 0.25,0.125 0.20463,0.043 0.2687,-0.01 0.34375,-0.031 0.1501,-0.045 0.2775,-0.114 0.4062,-0.1876 0.2576,-0.1471 0.581,-0.3653 0.9688,-0.6562 0.7756,-0.5817 1.7904,-1.4154 2.8125,-2.4375 2.0442,-2.0442 4.1563,-4.70651 4.1563,-7.3125 0,-2.30037 -1.7734,-4.59375 -4.5938,-4.59375 -2.3025,0 -3.4581,1.65776 -4,2.5625 -0.54186,-0.90474 -1.6975,-2.5625 -4,-2.5625 z"
     inkscape:href="#path4159"
     id="path4161"
     style="fill:#ffffff;fill-opacity:1;fill-rule:nonzero;stroke:#232323;stroke-width:1;stroke-linecap:round;stroke-linejoin:round;stroke-miterlimit:4;stroke-opacity:1;stroke-dasharray:none"
     xlink:href="#path4159"
     inkscape:original="M 5.5 2.5 C 3 2.5 1.5 4.5 1.5 6.5 C 1.5 11 9.5 16.5 9.5 16.5 C 9.5 17 17.5 11 17.5 6.5 C 17.5 4.5 16 2.5 13.5 2.5 C 11 2.5 9.5 5.5 9.5 5.5 C 9.5 5.5 8 2.5 5.5 2.5 z "
     inkscape:radius="0.600738"
     sodipodi:type="inkscape:offset" />
  <path
     inkscape:connector-curvature="0"
     sodipodi:nodetypes="csscssc"
     id="path4159"
     d="m 9.49997,16.49 c 0,0 -8,-5.5 -8,-10 0,-2 1.5,-4 4,-4 2.5,0 4,3 4,3 0,0 1.50003,-3 4.00003,-3 2.5,0 4,2 4,4 0,4.5 -8.00003,10.5 -8.00003,10 z"
     style="fill:url(#radialGradient2990);fill-opacity:1;fill-rule:nonzero;stroke:#ffffff;stroke-width:1;stroke-linecap:round;stroke-linejoin:round;stroke-miterlimit:4;stroke-opacity:1;stroke-dasharray:none" />
</svg>
