<?xml version="1.0" encoding="UTF-8" standalone="no"?>
<svg
   xmlns:dc="http://purl.org/dc/elements/1.1/"
   xmlns:cc="http://creativecommons.org/ns#"
   xmlns:rdf="http://www.w3.org/1999/02/22-rdf-syntax-ns#"
   xmlns:svg="http://www.w3.org/2000/svg"
   xmlns="http://www.w3.org/2000/svg"
   xmlns:xlink="http://www.w3.org/1999/xlink"
   version="1.1"
   id="svg3635"
   height="19"
   width="19">
  <defs
     id="defs3637">
    <linearGradient
       id="linearGradient4163">
      <stop
         id="stop4165"
         offset="0"
         style="stop-color:#ffc622;stop-opacity:1;" />
      <stop
         id="stop4167"
         offset="1"
         style="stop-color:#ff4a71;stop-opacity:1;" />
    </linearGradient>
    <radialGradient
       r="8.5"
       fy="1042.17"
       fx="9.5"
       cy="1042.17"
       cx="9.5"
       gradientTransform="matrix(1,0,0,0.883955,0,-913.226)"
       gradientUnits="userSpaceOnUse"
       id="radialGradient2990"
       xlink:href="#linearGradient4163" />
  </defs>
  <metadata
     id="metadata3640">
    <rdf:RDF>
      <cc:Work
         rdf:about="">
        <dc:format>image/svg+xml</dc:format>
        <dc:type
           rdf:resource="http://purl.org/dc/dcmitype/StillImage" />
        <dc:title></dc:title>
      </cc:Work>
    </rdf:RDF>
  </metadata>
  <path
     xlink:href="#path4159"
     style="fill:#ffffff;fill-opacity:1;fill-rule:nonzero;stroke:#232323;stroke-width:1;stroke-linecap:round;stroke-linejoin:round;stroke-miterlimit:4;stroke-opacity:1;stroke-dasharray:none"
     id="path4161"
     d="m 5.5,1.90625 c -2.82039,0 -4.59375,2.29338 -4.59375,4.59375 0,2.60599 2.14577,5.1471 4.1875,7.125 1.94127,1.8806 3.75167,3.1523 3.9375,3.2812 0.0382,0.047 0.0802,0.063 0.125,0.094 0.0806,0.055 0.18427,0.1112 0.25,0.125 0.20463,0.043 0.2687,-0.01 0.34375,-0.031 0.1501,-0.045 0.2775,-0.114 0.4062,-0.1876 0.2576,-0.1471 0.581,-0.3653 0.9688,-0.6562 0.7756,-0.5817 1.7904,-1.4154 2.8125,-2.4375 2.0442,-2.0442 4.1563,-4.70651 4.1563,-7.3125 0,-2.30037 -1.7734,-4.59375 -4.5938,-4.59375 -2.3025,0 -3.4581,1.65776 -4,2.5625 -0.54186,-0.90474 -1.6975,-2.5625 -4,-2.5625 z"
     transform="translate(0,-0.005453)" />
  <path
     style="fill:url(#radialGradient2990);fill-opacity:1;fill-rule:nonzero;stroke:#ffffff;stroke-width:1;stroke-linecap:round;stroke-linejoin:round;stroke-miterlimit:4;stroke-opacity:1;stroke-dasharray:none"
     d="m 9.49997,16.49 c 0,0 -8,-5.5 -8,-10 0,-2 1.5,-4 4,-4 2.5,0 4,3 4,3 0,0 1.50003,-3 4.00003,-3 2.5,0 4,2 4,4 0,4.5 -8.00003,10.5 -8.00003,10 z"
     id="path4159" />
</svg>
