<?xml version="1.0" encoding="UTF-8" standalone="no"?>
<svg
   xmlns:dc="http://purl.org/dc/elements/1.1/"
   xmlns:cc="http://creativecommons.org/ns#"
   xmlns:rdf="http://www.w3.org/1999/02/22-rdf-syntax-ns#"
   xmlns:svg="http://www.w3.org/2000/svg"
   xmlns="http://www.w3.org/2000/svg"
   xmlns:xlink="http://www.w3.org/1999/xlink"
   version="1.1"
   id="svg2"
   height="18"
   width="18">
  <defs
     id="defs4">
    <linearGradient
       id="linearGradient3758">
      <stop
         id="stop3760"
         offset="0"
         style="stop-color:#ffffff;stop-opacity:0.501961;" />
      <stop
         id="stop3762"
         offset="1"
         style="stop-color:#ffffff;stop-opacity:0;" />
    </linearGradient>
    <radialGradient
       gradientUnits="userSpaceOnUse"
       r="7.75"
       fy="9"
       fx="9"
       cy="9"
       cx="9"
       id="radialGradient3788"
       xlink:href="#linearGradient3758" />
  </defs>
  <metadata
     id="metadata7">
    <rdf:RDF>
      <cc:Work
         rdf:about="">
        <dc:format>image/svg+xml</dc:format>
        <dc:type
           rdf:resource="http://purl.org/dc/dcmitype/StillImage" />
        <dc:title></dc:title>
      </cc:Work>
    </rdf:RDF>
  </metadata>
  <g
     id="layer1">
    <path
       style="fill:#f5f53d;fill-opacity:1;stroke:none"
       id="path3775"
       d="M 16.5,9 A 7.25,7.75 0 1 1 2,9 7.25,7.75 0 1 1 16.5,9 z"
       transform="matrix(1.03448,0,0,0.967742,-0.568966,0.290643)" />
    <path
       transform="matrix(1.03448,0,0,0.967742,-0.568966,0.290643)"
       d="M 12.875,2.28831 A 7.25,7.75 0 0 1 5.625,15.7117 L 9.25,9 z"
       id="path3777"
       style="fill:#22cc00;fill-opacity:1;stroke:none" />
    <path
       id="path3753"
       d="m 16.25,9 c 0,4.0041 -3.2459,7.25 -7.25,7.25 C 4.99594,16.25 1.75,13.0041 1.75,9 1.75,4.99593 4.99594,1.75 9,1.75 c 4.0041,0 7.25,3.24593 7.25,7.25 z"
       style="fill:url(#radialGradient3788);stroke:#000000;stroke-width:1;stroke-linecap:round;stroke-linejoin:bevel;stroke-miterlimit:4;stroke-opacity:1;stroke-dasharray:none;stroke-dashoffset:0;fill-opacity:1.0" />
    <path
       transform="matrix(0.666667,0,0,0.666667,2.33333,2.33333)"
       d="m 8.5,7 a 1.5,1.5 0 1 1 -3,0 1.5,1.5 0 1 1 3,0 z"
       id="path3766"
       style="fill:#000000;fill-opacity:1;stroke:none" />
    <path
       transform="matrix(0.666667,0,0,0.666667,6.33333,2.33333)"
       style="fill:#000000;fill-opacity:1;stroke:none"
       id="path3768"
       d="m 8.5,7 a 1.5,1.5 0 1 1 -3,0 1.5,1.5 0 1 1 3,0 z" />
    <path
       id="path3770"
       d="m 5.5,10.5 c 0,0 1.04458,2.0004 3.49999,2.0004 C 11.4554,12.5004 12.5,10.5 12.5,10.5"
       style="fill:none;stroke:#000000;stroke-width:1;stroke-linecap:round;stroke-linejoin:miter;stroke-miterlimit:4;stroke-opacity:1;stroke-dasharray:none" />
  </g>
</svg>
