<?xml version="1.0" encoding="UTF-8" standalone="no"?>
<svg
   xmlns:dc="http://purl.org/dc/elements/1.1/"
   xmlns:cc="http://creativecommons.org/ns#"
   xmlns:rdf="http://www.w3.org/1999/02/22-rdf-syntax-ns#"
   xmlns:svg="http://www.w3.org/2000/svg"
   xmlns="http://www.w3.org/2000/svg"
   viewBox="0 0 20 20"
   version="1.1"
   id="svg5236"
   height="20"
   width="20">
  <defs
     id="defs5238" />
  <g
     id="layer1" />
  <circle
     r="9"
     cy="10"
     cx="10"
     id="path5784"
     style="opacity:1;fill:#0000ff;fill-opacity:1;stroke:#000000;stroke-width:2;stroke-linecap:round;stroke-linejoin:miter;stroke-miterlimit:4;stroke-dasharray:none;stroke-dashoffset:0;stroke-opacity:1" />
  <g
     id="text5786"
     style="fill:#ffffff;fill-opacity:1;stroke:none;stroke-width:1px;stroke-linecap:butt;stroke-linejoin:miter;stroke-opacity:1">
    <path
       id="path5799"
       d="m 8.64868,5.30151 q 0,-0.28564 0.0952,-0.49072 Q 8.84644,4.60571 9.01489,4.4812 9.19067,4.34936 9.41772,4.29077 9.6521,4.22485 9.9231,4.22485 q 0.2563,0 0.4907,0.0659 0.2344,0.0586 0.4102,0.19043 0.1758,0.12451 0.2783,0.32959 0.1099,0.20508 0.1099,0.49072 0,0.27832 -0.1099,0.4834 -0.1025,0.20508 -0.2783,0.33692 -0.1758,0.13183 -0.4102,0.19775 -0.2344,0.0659 -0.4907,0.0659 -0.271,0 -0.50538,-0.0659 Q 9.19067,6.25366 9.01489,6.12183 8.84644,5.98999 8.7439,5.78491 8.64868,5.57983 8.64868,5.30151 Z M 7.79175,14.9768 q 0.16846,0 0.35156,-0.029 0.19043,-0.037 0.34424,-0.1392 0.16113,-0.1025 0.26367,-0.2929 0.10986,-0.1904 0.10986,-0.5127 l 0,-4.55568 q 0,-0.30029 -0.10986,-0.47607 Q 8.64868,8.78784 8.48755,8.69263 8.32642,8.59009 8.13599,8.56079 7.95288,8.53149 7.79175,8.53149 l -0.17578,0 0,-0.79834 3.52293,0 0,6.26955 q 0,0.3223 0.1026,0.5127 0.1098,0.1904 0.2636,0.2929 0.1612,0.1026 0.3516,0.1392 0.1904,0.029 0.3516,0.029 l 0.1757,0 0,0.7983 -4.76803,0 0,-0.7983 0.17578,0 z" />
  </g>
</svg>
