<?xml version="1.0" encoding="UTF-8" standalone="no"?>
<svg xmlns:dc="http://purl.org/dc/elements/1.1/" xmlns:cc="http://creativecommons.org/ns#" xmlns:rdf="http://www.w3.org/1999/02/22-rdf-syntax-ns#" xmlns:svg="http://www.w3.org/2000/svg" xmlns="http://www.w3.org/2000/svg" id="SVGRoot" version="1.1" viewBox="0 0 128 128" height="128px" width="128px">
  <defs id="defs1366" />
  <metadata id="metadata1369">
    <rdf:RDF>
      <cc:Work rdf:about="">
        <dc:format>image/svg+xml</dc:format>
        <dc:type rdf:resource="http://purl.org/dc/dcmitype/StillImage" />
        <dc:title></dc:title>
      </cc:Work>
    </rdf:RDF>
  </metadata>
  <g id="layer3">
    <path id="path1459" d="M 62.5,38.5 22,14 43.5,62" style="display:inline;opacity:1;fill:#b0e0e6;fill-opacity:1;stroke:#000000;stroke-width:3;stroke-linecap:round;stroke-linejoin:miter;stroke-miterlimit:4;stroke-dasharray:none;stroke-dashoffset:0;stroke-opacity:1" />
    <path id="path1457" d="m 62.5,38.5 -56,2 L 44,64" style="display:inline;opacity:1;fill:#b0e0e6;fill-opacity:1;stroke:#000000;stroke-width:3;stroke-linecap:round;stroke-linejoin:miter;stroke-miterlimit:4;stroke-dasharray:none;stroke-dashoffset:0;stroke-opacity:1" />
  </g>
  <g style="display:inline" id="layer1">
    <path id="path835" d="M 101,62.5 62.25,110 56,122.5 c -3.3975,6.795 -11.417,4.331 -9,-2.5 L 58.5,87.5 33,92.5 C 24.7813,94.1115 22.511,88.8205 27,83 L 86,6.5 C 91.9715,-1.2427 98.6733,2.26233 94.5,12 L 75,57.5" style="opacity:1;fill:#ffff00;fill-opacity:1;stroke:#000000;stroke-width:3;stroke-linecap:round;stroke-linejoin:miter;stroke-miterlimit:4;stroke-dasharray:none;stroke-dashoffset:0;stroke-opacity:1" />
    <path id="path829" d="m 76,57.5 41,-9 c 7.519,-1.6505 10.709,2.563 4.5,9 L 67,114 c -4.9986,5.182 -11.3312,0.848 -7.5,-4.5 L 83.5,76 66,78" style="opacity:1;fill:#ffff00;fill-opacity:1;stroke:#000000;stroke-width:3;stroke-linecap:square;stroke-linejoin:miter;stroke-miterlimit:4;stroke-dasharray:none;stroke-dashoffset:0;stroke-opacity:1" />
    <path id="path1449" d="M 57.8108,43.2384 19,75 c -4.8208,3.9452 -0.9605,10.6281 5,7 L 58.5,61" style="opacity:1;fill:#ffff00;fill-opacity:1;stroke:#000000;stroke-width:3.000945;stroke-linecap:butt;stroke-linejoin:miter;stroke-miterlimit:4;stroke-dasharray:none;stroke-dashoffset:0;stroke-opacity:1" />
  </g>
</svg>
